<?xml version="1.0" encoding="UTF-8" standalone="no"?>
<!DOCTYPE svg PUBLIC "-//W3C//DTD SVG 1.1//EN" "http://www.w3.org/Graphics/SVG/1.1/DTD/svg11.dtd">
<svg width="100%" height="100%" viewBox="0 0 36 48" version="1.1"
    xmlns="http://www.w3.org/2000/svg"
    xmlns:xlink="http://www.w3.org/1999/xlink" xml:space="preserve"
    xmlns:serif="http://www.serif.com/" style="fill-rule:evenodd;clip-rule:evenodd;stroke-linecap:round;stroke-linejoin:round;stroke-miterlimit:1.5;">
    <rect id="v1" x="0" y="-2.902" width="36" height="54" style="fill:none;"/>
    <g id="Layer1">
        <path d="M0.77,1.7c0,0 8.638,3.618 17.23,3.618c8.592,0 17.23,-3.618 17.23,-3.618" style="fill:none;stroke:black;stroke-width:1.29px;"/>
        <path d="M35.23,1.7c0,0 0.124,6.545 -2.412,8.615c-2.537,2.069 -10.338,6.767 -10.338,14.99c0,3.465 2.553,5.022 4.135,7.925c2.653,4.869 1.192,13.267 -8.615,13.267" style="fill:none;stroke:black;stroke-width:1.29px;"/>
        <path d="M0.77,1.7c0,0 -0.124,6.545 2.412,8.615c2.537,2.069 10.338,6.767 10.338,14.99c0,3.465 -2.553,5.022 -4.135,7.925c-2.653,4.869 -1.192,13.267 8.615,13.267" style="fill:none;stroke:black;stroke-width:1.29px;"/>
        <path d="M18,36.159l0,4.308" style="fill:none;stroke:black;stroke-width:1.29px;"/>
        <path d="M18,40.467l5.169,2.412" style="fill:none;stroke:black;stroke-width:1.29px;"/>
        <path d="M18,40.467l-4.824,2.412" style="fill:none;stroke:black;stroke-width:1.29px;"/>
        <path d="M8.696,14.795c-5.206,2.817 -1.049,10.523 3.728,5.513" style="fill:none;stroke:black;stroke-width:1.29px;"/>
        <path d="M27.274,14.795c5.206,2.817 1.049,10.523 -3.728,5.513" style="fill:none;stroke:black;stroke-width:1.29px;"/>
        <path d="M8.351,14.795c0,0 4.296,-2.757 9.649,-2.757c5.353,0 9.304,2.757 9.304,2.757" style="fill:none;stroke:black;stroke-width:1.29px;"/>
        <path d="M18,5.318l0,6.72" style="fill:none;stroke:black;stroke-width:1.29px;"/>
        <path d="M0.77,1.7c0,0 8.638,3.618 17.23,3.618c8.592,0 17.23,-3.618 17.23,-3.618" style="fill:none;stroke:black;stroke-width:1.29px;"/>
        <path d="M35.23,31.565c0,0 -0.09,14.932 -17.23,14.932c-17.14,0 -17.23,-14.932 -17.23,-14.932l-0.001,-14.933c0,0 0.001,-14.933 17.231,-14.933c17.23,0 17.231,14.933 17.231,14.933l-0.001,14.933Z" style="fill:none;stroke:black;stroke-width:1.29px;"/>
        <path d="M13.176,32.448c0,0 2.358,2.849 4.873,2.849c2.516,0 4.603,-2.929 4.603,-2.929" style="fill:none;stroke:black;stroke-width:1.29px;"/>
        <path d="M18,35.297l0,5.17" style="fill:none;stroke:black;stroke-width:1.29px;"/>
        <path d="M18,5.318l0,6.72" style="fill:none;stroke:black;stroke-width:1.29px;"/>
        <path d="M9.385,9.109l17.23,0" style="fill:none;stroke:black;stroke-width:1.29px;"/>
        <path d="M0.77,17.207c0,0 0.155,7.299 8.615,7.064" style="fill:none;stroke:black;stroke-width:1.29px;"/>
        <path d="M1.115,32.392c0.766,-3.068 4.815,-3.082 7.235,-3.116" style="fill:none;stroke:black;stroke-width:1.29px;"/>
        <path d="M0.769,26.855l8.272,-0.163" style="fill:none;stroke:black;stroke-width:1.29px;"/>
        <path d="M2.321,37.361c0,0 0.28,-4.689 4.652,-5.16" style="fill:none;stroke:black;stroke-width:1.29px;"/>
        <path d="M35.23,17.207c0,0 -0.155,7.299 -8.615,7.064" style="fill:none;stroke:black;stroke-width:1.29px;"/>
        <path d="M35.231,26.855l-8.272,-0.163" style="fill:none;stroke:black;stroke-width:1.29px;"/>
        <path d="M34.885,32.392c-0.766,-3.068 -4.815,-3.082 -7.235,-3.116" style="fill:none;stroke:black;stroke-width:1.29px;"/>
        <path d="M33.679,37.361c0,0 -0.28,-4.689 -4.652,-5.16" style="fill:none;stroke:black;stroke-width:1.29px;"/>
    </g>
</svg>